<svg xmlns="http://www.w3.org/2000/svg" viewBox="0 0 512 512"><g fill="#c3ddf4"><circle cx="256" cy="267" r="245"/><circle cx="256" cy="267" r="245"/></g><g fill="#ea2a3d"><path d="M67.164 382H39.63a245.386 245.386 0 0027.534 41.078V382zM422.61 382l-2.165 7.73a1.028 1.028 0 00-.037.27v58.625c20.931-18.962 38.573-41.488 51.961-66.625H422.61z"/></g><g fill="#69cdff"><path d="M74.531 167.514h36.485v-8.791h-8.593c-1.65 0-3-1.35-3-3v-.967c0-1.65 1.35-3 3-3h8.593V145c0-.352.073-.686.185-1h-36.67c-7.184 0-13.063 5.29-13.063 11.756 0 6.468 5.879 11.758 13.063 11.758zM117.799 144c.112.314.185.648.185 1v6.756h8.593c1.65 0 3 1.35 3 3v.967c0 1.65-1.35 3-3 3h-8.593v8.791h21.535c7.185 0 13.063 5.29 13.063 11.758 0 6.467-5.878 11.757-13.063 11.757h-15.375c.072.479.112.968.112 1.466 0 4.159-2.607 7.7-6.272 9.104v6.033h-.158a156.797 156.797 0 004.216 6.912h85.197l15.909-34.982c.172-.377.322-.513.378-.554.011.041.161.177.333.554l2.574 5.659a1 1 0 00.91.586l.046-.001a1 1 0 00.898-.67L242.605 144H117.799zM110.869 207.631h.147v-6.033c-3.665-1.403-6.272-4.944-6.272-9.104 0-.498.04-.987.112-1.466h-81.83a242.817 242.817 0 00-6.378 23.515h89.916a165.215 165.215 0 004.305-6.912zM335.472 144h-47.578l8.184 23.514h39.394c7.184 0 13.063-5.29 13.063-11.758 0-6.466-5.879-11.756-13.063-11.756zM365.655 212.638c0-3.992 2.502-7.391 6.02-8.737v-12.872h-46.001c-4.46 0-8.414 2.041-10.773 5.134l8.257 18.156c.815.145 1.656.225 2.517.225h40.176a9.357 9.357 0 01-.196-1.906zM378.362 191.146V203.9a9.354 9.354 0 016.003 8.322c3.216-2.148 5.32-5.578 5.32-9.438 0-5.932-4.955-10.864-11.323-11.638zM246.898 111c0-1.103.897-2 2-2h1a1 1 0 001-1V93.699h-96.975c-5.606 0-10.194 4.129-10.194 9.175s4.587 9.175 10.194 9.175h92.975V111zM224.521 75.35h20.654a15.192 15.192 0 01-.146-1.98c0-4.047 1.65-7.993 4.646-11.113.458-.394 2.689-2.359 5.475-5.256h-30.629c-5.607 0-10.194 4.129-10.194 9.175 0 5.045 4.587 9.174 10.194 9.174zM428.148 57h-152.94c2.903 2.978 5.248 4.956 5.737 5.361 3.036 2.749 4.524 6.358 4.524 11.008 0 2.254-.514 4.454-1.471 6.503.901 1.368 1.43 2.955 1.43 4.652 0 3.641-2.393 6.794-5.828 8.273V108a1 1 0 001 1h1c1.103 0 2 .897 2 2v1.049h99.184c5.606 0 10.194-4.129 10.194-9.175s-4.587-9.175-10.194-9.175H370.04c-5.606 0-10.194-4.128-10.194-9.175s4.587-9.175 10.194-9.175h58.108c5.607 0 10.194-4.129 10.194-9.175 0-5.045-4.587-9.174-10.194-9.174zM470.454 102.874c0 5.046-4.587 9.175-10.194 9.175h-39.757c-5.607 0-10.194-4.129-10.194-9.175s4.587-9.175 10.194-9.175h39.757c5.607 0 10.194 4.129 10.194 9.175z"/></g><path d="M280.601 109V84.15c-.064.018-.129.037-.197.037h-30.308c-.068 0-.133-.02-.197-.037V109h30.702z" fill="#ea2a3d"/><g fill="#b7092b"><path d="M265.5 109V84.188h-15.404c-.068 0-.133-.02-.197-.037V109H265.5zM243.466 222.675a1 1 0 001.82 0l19.607-43.113c.172-.377.322-.513.378-.554.011.041.161.177.333.554l19.607 43.113a1 1 0 001.82 0l16.6-36.5L281.993 124h-33.486l-21.64 62.175 16.599 36.5z"/></g><path d="M243.466 222.675a1 1 0 001.82 0l19.607-43.113c.172-.377.322-.513.378-.554.011.041.161.177.333.554l19.607 43.113a1 1 0 001.82 0l2.363-5.195-15.94-93.48h-16.408l-15.942 93.48 2.362 5.195z" fill="#a00026"/><g fill="#fe3745"><path d="M308.261 179.148c-.696-1.53-1.835-1.53-2.531 0l-19.607 43.113 3.321 7.303h41.746l-22.929-50.416zM329.629 414v-23.583c0-.091-.013-.182-.037-.27l-5.603-20.01a1 1 0 00-.031-2c-.4 0-.78-.152-1.07-.428-9.645-9.172-15.759-20.56-17.7-32.71h-58.964c6.505 8.751 9.706 19.362 9.706 32.184 0 15.478-6.616 30.293-18.629 41.718-.095.09-.221.174-.385.257a1 1 0 00-.52.65L235.348 414h94.281z"/></g><g fill="#ea2a3d"><path d="M317.5 414v-52.11c-3.525-4.306-6.376-8.963-8.496-13.864-4.186.257-7.504 3.724-7.504 7.975v58h16V414zM291.5 414v-58a8 8 0 00-16 0v58h16zM257.5 348a7.956 7.956 0 00-4.118 1.15c1.695 5.465 2.548 11.455 2.548 18.033 0 8.961-2.231 17.695-6.43 25.683V414h16v-58a8 8 0 00-8-8z"/></g><path d="M329.629 430h-98.28l-.85 3.4a.984.984 0 00-.03.242v77.033A246.944 246.944 0 00256 512c25.66 0 50.387-3.97 73.629-11.289V430z" fill="#fe3745"/><path fill="#a00026" d="M329.629 413h-94.031l-4.499 18h98.53z"/><path d="M209.249 268c2.253 0 4.495.39 6.666 1.159a.991.991 0 00.911-.126 1 1 0 00.423-.816V268c0-11.028 8.972-20 20-20s20 8.972 20 20v.217a.999.999 0 001.334.942 19.898 19.898 0 016.666-1.159c2.249 0 4.492.391 6.666 1.16a.991.991 0 00.911-.126 1 1 0 00.423-.816V268c0-11.028 8.972-20 20-20s20 8.972 20 20v.215a.999.999 0 001.334.942 19.911 19.911 0 016.666-1.157c3.545 0 6.944.935 9.94 2.658v-41.095H199.31v41.115a19.94 19.94 0 019.939-2.678z" fill="#b7092b"/><path d="M209.249 268c2.253 0 4.495.39 6.666 1.159a.991.991 0 00.911-.126 1 1 0 00.423-.816V268c0-8.326 5.118-15.475 12.371-18.48v-19.956h-30.31v41.115a19.931 19.931 0 019.939-2.679z" fill="#a00026"/><g fill="#ea2a3d"><path d="M228.926 284.518a.996.996 0 00.985.827c.118 0 .237-.021.35-.063 2.276-.85 4.627-1.281 6.988-1.281s4.712.432 6.988 1.281a1.007 1.007 0 00.847-.069.996.996 0 00.488-.695 19.948 19.948 0 0112.677-15.256V268c0-11.598-9.402-21-21-21s-21 9.402-21 21v1.262a19.944 19.944 0 0112.677 15.256zM284.978 284.859a1 1 0 001.383.763A19.865 19.865 0 01294.25 284c2.066 0 4.114.319 6.087.95a.997.997 0 001.287-.763c1.347-6.978 6.263-12.525 12.627-14.913V268c0-11.598-9.402-21-21-21s-21 9.402-21 21v1.249c6.593 2.444 11.566 8.271 12.727 15.61z"/></g><g fill="#fe3745"><path d="M215.876 305h1.374v-1c0-8.494 5.332-15.748 12.816-18.644C228.763 275.01 219.95 267 209.249 267c-6.956 0-13.104 3.397-16.926 8.607 7.299 10.981 15.789 21.074 23.553 29.393zM257.25 304v1h17v-1c0-8.134 4.888-15.136 11.874-18.258C284.997 275.207 276.084 267 265.25 267c-10.701 0-19.513 8.01-20.816 18.356 7.484 2.896 12.816 10.15 12.816 18.644z"/></g><path d="M258.25 305v-1c0-11.598-9.402-21-21-21s-21 9.402-21 21v1h42z" fill="#ea2a3d"/><path d="M313.113 297.385a61.261 61.261 0 017.72-9.893c1.406-1.213 7.41-6.478 15.225-14.378A20.933 20.933 0 00321.249 267c-10.58 0-19.308 7.832-20.763 18.01a20.091 20.091 0 0112.627 12.375z" fill="#fe3745"/><path d="M313.78 296.32c-3.068-7.795-10.647-13.32-19.531-13.32-11.598 0-21 9.402-21 21v1h35.837a58.094 58.094 0 014.694-8.68z" fill="#ea2a3d"/><path d="M309.692 303.641H214.62c12.951 14.06 24.186 23.42 24.985 24.079a49.517 49.517 0 017.784 8.921h58.105a53.358 53.358 0 01-.975-10.064c0-7.905 1.79-15.695 5.173-22.936z" fill="#b7092b"/><g fill="#a00026"><path d="M239.509 327.64h9.241v-15.001h-15v9.969c3.159 2.855 5.25 4.609 5.759 5.032zM257.75 312.64h15v15h-15zM281.75 312.64h15v15h-15z"/></g><g fill="#ef8318"><path d="M265.622 44.813c1.08 1.83 2.296 3.586 3.556 5.239V33.525a5.97 5.97 0 01-7.856 0v16.328a56.541 56.541 0 003.462-5.041l.838.001zM265.25 23c1.503 0 2.874.559 3.928 1.475V3c0-1.65-1.35-3-3-3h-1.856c-1.65 0-3 1.35-3 3v21.475A5.966 5.966 0 01265.25 23z"/></g><g fill="#ffaf10"><path d="M375.019 221a8.316 8.316 0 01-3.344-.702v6.69h6.688v-6.69a8.32 8.32 0 01-3.344.702zM386.489 173.363h-8.127V167c0-1.65-1.35-3-3-3h-.688c-1.65 0-3 1.35-3 3v6.363h-8.126c-1.65 0-3 1.35-3 3v.687c0 1.649 1.35 3 3 3h8.126v24.927a8.313 8.313 0 016.688 0V180.05h8.127c1.65 0 3-1.351 3-3v-.687c0-1.65-1.35-3-3-3z"/></g><path d="M384.382 212.638a9.362 9.362 0 01-9.363 9.362 9.362 9.362 0 01-9.363-9.362 9.362 9.362 0 019.363-9.363c5.171-.001 9.363 4.191 9.363 9.363z" fill="#ef9614"/><path d="M328.629 501.053c34.913-10.822 66.48-29.245 92.779-53.328V389.28h-92.779v111.773z" fill="#b7092b"/><path fill="#ffaf10" d="M421.408 390h-92.779l-5.958-21.279h104.696z"/><path fill="#ef9614" d="M322.671 368.721L328.629 390h20.829l-5.958-21.279z"/><path d="M430.081 286.915c-.036-.033-33.044-27.072-51.87-59.927h-6.677c-18.821 32.067-51.359 59.745-51.422 59.812-10.7 11.141-16.594 25.268-16.594 39.777 0 15.537 6.634 30.401 18.68 41.857a2.551 2.551 0 001.76.704H426.08c.654 0 1.285-.252 1.76-.704 12.045-11.455 18.679-26.319 18.679-41.857 0-16.673-5.377-29.646-16.438-39.662z" fill="#02af8e"/><path d="M439.766 298.833c-17.831-6.922-34.184-17.536-48.103-31.457a140.12 140.12 0 01-23.191-30.619h-3.17a207.675 207.675 0 01-6.46 8.911 153.117 153.117 0 0023.793 30.735c17.831 17.832 39.318 30.693 62.778 37.9-1.079-5.656-2.958-10.797-5.647-15.47z" fill="#ffd00d"/><path d="M384.317 236.757a158.574 158.574 0 01-6.107-9.769h-6.677a167.292 167.292 0 01-6.227 9.769h19.011z" fill="#159e97"/><g fill="#ffd00d"><path d="M446.449 329.192c-29.191-4.459-56.103-18.006-77.351-39.254a140.214 140.214 0 01-22.546-29.441 310.328 310.328 0 01-9.072 9.749 153.281 153.281 0 0022.59 28.722c23.153 23.152 52.468 37.928 84.266 42.82a54.657 54.657 0 002.113-12.596z"/><path d="M337.507 321.53c25.316 25.317 58 40.621 93.242 43.935 3.504-3.783 6.459-7.879 8.831-12.206-35.182-1.408-68.037-15.749-93.045-40.757a140.215 140.215 0 01-22.437-29.255c-2.49 2.273-3.974 3.538-3.986 3.553a63.138 63.138 0 00-5.145 6.093 153.304 153.304 0 0022.54 28.637zM379.43 369.138c-20.692-6.714-39.645-18.259-55.458-34.072a140.714 140.714 0 01-18.499-22.826c-1.279 4.673-1.954 9.482-1.954 14.338 0 1.693.094 3.376.25 5.049a154.797 154.797 0 0011.175 12.468c9.927 9.927 20.987 18.313 32.889 25.044h31.597v-.001z"/></g><path d="M224.769 179.148c-.696-1.53-1.835-1.53-2.531 0l-22.928 50.416h41.746l3.321-7.303-19.608-43.113z" fill="#fe3745"/><path d="M266.515 179.148c-.696-1.53-1.835-1.53-2.531 0l-22.929 50.416h48.389l-22.929-50.416z" fill="#ea2a3d"/><path d="M281.591 61.598c-.011-.011-9.807-8.034-15.395-17.785h-1.982c-5.585 9.518-15.242 17.73-15.26 17.751-3.176 3.307-4.925 7.5-4.925 11.806 0 4.61 1.969 9.022 5.544 12.423a.758.758 0 00.523.208h30.308a.758.758 0 00.523-.208c3.575-3.4 5.544-7.813 5.544-12.423-.001-4.949-1.597-8.801-4.88-11.772z" fill="#ffaf10"/><path d="M255.5 73.369c0-4.306 1.749-8.499 4.925-11.806.014-.016 5.422-4.618 10.485-10.92-1.688-2.108-3.33-4.416-4.713-6.831h-1.982c-5.585 9.518-15.242 17.73-15.26 17.751-3.176 3.307-4.925 7.5-4.925 11.806 0 4.61 1.969 9.022 5.544 12.423a.758.758 0 00.523.208h11.471a.754.754 0 01-.522-.208c-3.577-3.4-5.546-7.813-5.546-12.423z" fill="#ef9614"/><g fill="#ffaf10"><path d="M272.25 29a7 7 0 11-14 0 7 7 0 1114 0zM114.5 201.25a8.712 8.712 0 01-3.484-.727v7.108h6.968v-7.108a8.712 8.712 0 01-3.484.727zM126.577 151.756h-8.593V145c0-1.65-1.35-3-3-3h-.968c-1.65 0-3 1.35-3 3v6.756h-8.593c-1.65 0-3 1.35-3 3v.967c0 1.65 1.35 3 3 3h8.593v25.743a8.695 8.695 0 016.968 0v-25.743h8.593c1.65 0 3-1.35 3-3v-.967c0-1.651-1.35-3-3-3z"/></g><path d="M124.256 192.494a9.755 9.755 0 01-9.756 9.756 9.755 9.755 0 01-9.756-9.756 9.755 9.755 0 019.756-9.756 9.755 9.755 0 019.756 9.756z" fill="#ef9614"/><path d="M138.392 433.643a.984.984 0 00-.03-.242l-5.897-23.592a.998.998 0 00-.52-.65 1.615 1.615 0 01-.385-.257c-9.176-8.727-15.19-19.435-17.525-30.901H66.164v43.872a246.04 246.04 0 0072.228 60.054v-48.284z" fill="#fe3745"/><path d="M112.93 367.184c0-4.161.503-8.289 1.451-12.326H59.956l6.208 24.833h48.248a54.17 54.17 0 01-1.482-12.507z" fill="#b7092b"/><path fill="#a00026" d="M59.956 354.857l6.208 24.833h15.455l-6.208-24.833z"/><path d="M129.477 327.542c3.136-2.703 28.841-25.278 47.113-52.617a54.072 54.072 0 00-4.717-4.853c-.038-.035-34.431-28.209-54.047-62.441h-6.957c-19.611 33.413-53.514 62.252-53.58 62.32C46.14 281.56 40 296.279 40 311.398c0 16.189 6.912 31.677 19.463 43.613.495.47 1.151.732 1.833.732h52.882c2.243-10.312 7.476-20.055 15.299-28.201z" fill="#293d7c"/><path d="M129.477 327.542c2.652-2.286 21.443-18.782 38.231-40.351-2.162-6.46-5.31-12.145-9.496-17.119-.026-.031-21.194-22.8-36.331-52.264H106.79c-15.064 28.883-35.834 52.081-35.879 52.143-8.495 11.609-13.173 26.328-13.173 41.447 0 16.189 5.266 31.677 14.829 43.613.377.47.877.732 1.397.732h40.214c2.243-10.312 7.476-20.055 15.299-28.201z" fill="#fff"/><path d="M129.477 327.542c2.03-1.749 13.517-11.824 26.322-26.126-1.01-12.679-4.042-23-9.197-31.344-.02-.031-15.565-22.8-26.681-52.264h-11.083c-11.063 28.883-26.316 52.081-26.348 52.143-6.238 11.609-9.674 26.328-9.674 41.447 0 16.189 3.868 31.677 10.89 43.613.277.47.645.732 1.026.732h29.447c2.242-10.312 7.475-20.055 15.298-28.201z" fill="#293d7c"/><path d="M129.477 327.542c.921-.794 3.803-3.316 7.861-7.158.146-2.958.222-5.96.222-8.985 0-17.372-1.734-30.891-5.302-41.326-.011-.031-8.61-22.8-14.759-52.264h-6.131c-6.12 28.883-14.558 52.081-14.576 52.143-3.451 11.609-5.352 26.328-5.352 41.447 0 16.189 2.139 31.677 6.024 43.613.153.47.356.732.568.732h16.146c2.243-10.313 7.476-20.056 15.299-28.202z" fill="#fff"/><path d="M122.706 335.934c.433-7.71.663-16.022.663-24.535 0-17.372-.667-30.891-2.04-41.326-.003-.031-3.311-22.8-5.676-52.264h-2.358c-2.354 28.883-5.599 52.081-5.606 52.143-1.328 11.609-2.059 26.328-2.059 41.447 0 16.189.823 31.677 2.317 43.613.06.47.137.732.218.732h6.012c1.517-6.971 4.402-13.678 8.529-19.81z" fill="#293d7c"/><path d="M124.188 217.809a164.438 164.438 0 01-6.362-10.178h-6.957a174.35 174.35 0 01-6.488 10.178h19.807z" fill="#1a2b63"/><g fill="#ffaf10"><path d="M184.43 255.708a8.447 8.447 0 01-3.39-.71v11.204h6.78v-11.204a8.447 8.447 0 01-3.39.71zM196.102 211.827h-8.282v-6.494c0-1.649-1.35-3-3-3h-.78c-1.65 0-3 1.351-3 3v6.494h-8.282c-1.65 0-3 1.351-3 3v.779c0 1.65 1.35 3 3 3h8.282v20.823a8.45 8.45 0 016.78 0v-20.823h8.282c1.65 0 3-1.35 3-3v-.779c0-1.649-1.35-3-3-3z"/></g><path d="M193.924 247.214a9.494 9.494 0 01-9.494 9.494 9.493 9.493 0 01-9.494-9.494 9.493 9.493 0 019.494-9.494 9.493 9.493 0 019.494 9.494z" fill="#ef9614"/><path d="M137.392 481.409a243.411 243.411 0 0094.077 29.372v-78.614h-94.077v49.242z" fill="#ea2a3d"/><path fill="#b7092b" d="M231.469 433.643h-94.077l-6.042-24.167h106.16z"/><path fill="#a00026" d="M131.35 409.476l6.042 24.167h15.15l-6.042-24.167z"/><path d="M248.898 125c-1.65 0-3-1.35-3-3v-11c0-1.65 1.35-3 3-3H281.6c1.65 0 3 1.35 3 3v11c0 1.65-1.35 3-3 3h-32.702z" fill="#fe3745"/><g fill="#ea2a3d"><path d="M261.5 122v-11c0-1.65 1.35-3 3-3h-15.602c-1.65 0-3 1.35-3 3v11c0 1.65 1.35 3 3 3H264.5c-1.65 0-3-1.35-3-3zM298 454h-26.875c-2.75 0-5 2.25-5 5v52.775A245.46 245.46 0 00303 507.477V459c0-2.75-2.25-5-5-5z"/></g><path d="M153.207 450.926l-7.867 34.707a243.088 243.088 0 0019.017 8.635l-9.824-43.342c-.364-1.61-.961-1.61-1.326 0z" fill="#b7092b"/><g fill="#ea2a3d"><path d="M83.002 404.217l-5.666 30.406a246.528 246.528 0 0015.198 14.855L84.1 404.216c-.301-1.621-.795-1.621-1.098.001zM116.002 404.217l-10.461 56.143a245.595 245.595 0 0025.235 17.246l-13.675-73.389c-.302-1.622-.796-1.622-1.099 0z"/></g><g fill="#b7092b"><path d="M180.496 450.926l-10.335 45.6a243.242 243.242 0 0023.701 7.516l-12.039-53.115c-.365-1.611-.962-1.611-1.327-.001zM207.785 450.926L195.642 504.5a243.982 243.982 0 0026.791 5.201l-13.322-58.775c-.364-1.61-.961-1.61-1.326 0z"/></g><g fill="#fe3745"><path d="M349.433 404.709l-13.845 94.063a243.527 243.527 0 0026.933-11.082l-12.214-82.98c-.24-1.633-.634-1.633-.874-.001zM376.722 404.709l-12.057 81.915a244.458 244.458 0 0023.071-13.024l-10.14-68.891c-.24-1.632-.634-1.632-.874 0zM404.011 404.709l-9.475 64.371a245.722 245.722 0 0017.839-13.478l-7.491-50.893c-.239-1.632-.633-1.632-.873 0z"/></g><path d="M240.263 326.967c-.037-.034-33.507-27.451-52.596-60.765h-6.77c-19.085 32.516-52.077 60.58-52.142 60.648-10.85 11.298-16.825 25.621-16.825 40.334 0 15.755 6.727 30.827 18.94 42.442a2.593 2.593 0 001.784.713h103.551c.663 0 1.303-.256 1.784-.713 12.214-11.615 18.941-26.688 18.941-42.442 0-16.906-5.452-30.062-16.667-40.217z" fill="#ffd00d"/><path d="M193.858 276.106a160.723 160.723 0 01-6.191-9.904h-6.77a169.677 169.677 0 01-6.314 9.904h19.275z" fill="#0f9390"/><path d="M245.846 367.001l8.002-8.002 2.88 2.88c-.284-3.902-.893-7.587-1.825-11.068l-1.055 1.055-8.002-8.003 4.451-4.45a47.018 47.018 0 00-2.776-4.357l-5.242 5.241-8.003-8.003 5.626-5.626a186.667 186.667 0 01-3.826-3.308l-5.367 5.366-8.003-8.003 5.056-5.058a281.295 281.295 0 01-3.605-3.527l-5.018 5.018-8.003-8.002 5.153-5.153a275.348 275.348 0 01-3.407-3.727l-5.313 5.313-8.003-8.003 5.925-5.925a238.672 238.672 0 01-3.175-3.958l-6.317 6.316-8.003-8.003 7.505-7.504a199.407 199.407 0 01-1.642-2.403h-3.088l-6.341 6.341-6.341-6.341h-3.507c-.491.717-.981 1.435-1.481 2.145l7.763 7.763-8.003 8.003-6.598-6.598a257.79 257.79 0 01-3.174 3.959l6.206 6.205-8.003 8.003-5.574-5.574a291.474 291.474 0 01-3.388 3.745l5.396 5.396-8.003 8.002-5.203-5.201a350.122 350.122 0 01-3.57 3.563l5.206 5.206-8.003 8.003-5.419-5.418a197.409 197.409 0 01-3.771 3.363l5.623 5.622-8.003 8.003-4.792-4.793a60.32 60.32 0 00-2.698 4.437l3.924 3.923-8.002 8.003-.688-.686a55.538 55.538 0 00-2.126 10.633l2.813-2.813 8.002 8.002-8.002 8.003-2.841-2.841a55.445 55.445 0 002.064 10.751l.776-.776 8.002 8.004-4.066 4.066a60.392 60.392 0 002.688 4.444l4.944-4.944 8.003 8.003-5.818 5.817a65.09 65.09 0 002.105 2.098 2.593 2.593 0 001.784.713h.435l5.062-5.062 5.062 5.062h13.016l5.062-5.062 5.061 5.062h13.016l5.062-5.062 5.061 5.062h13.016l5.062-5.062 5.062 5.062h13.016l5.062-5.062 5.061 5.062h.435c.663 0 1.303-.256 1.784-.713a65.056 65.056 0 002.104-2.098l-5.818-5.817 8.003-8.003 4.944 4.944a60.616 60.616 0 002.689-4.444l-4.066-4.066 8.002-8.004.776.776a55.445 55.445 0 002.064-10.751l-2.841 2.841-8.001-8.005zm4.436-11.569l-8.003 8.003-8.003-8.003 8.003-8.003 8.003 8.003zm-42.712-3.567l-8.003-8.003 8.003-8.003 8.003 8.003-8.003 8.003zm11.57-4.436l8.003 8.003-8.003 8.004-8.003-8.004 8.003-8.003zm-42.713-3.567l8.003-8.003 8.003 8.003-8.003 8.003-8.003-8.003zm4.437 11.57l-8.003 8.003-8.003-8.003 8.003-8.003 8.003 8.003zm15.135-8.003l8.003 8.003-8.002 8.003-8.003-8.003 8.002-8.003zm0-7.133l-8.003-8.003L196 324.29l8.003 8.003-8.004 8.003zm-11.569-11.57l-8.003-8.002 8.003-8.004 8.003 8.004-8.003 8.002zm-3.566 3.567l-8.003 8.003-8.003-8.003 8.003-8.003 8.003 8.003zm-11.57 11.569l-8.003 8.003-8.003-8.003 8.003-8.003 8.003 8.003zm-11.57 11.57l-8.003 8.004-8.003-8.004 8.003-8.003 8.003 8.003zm-11.57 11.571l-8.002 8.002-8.003-8.004 8.003-8.002 8.002 8.004zm3.567 3.566l8.003 8.002-8.003 8.004-8.003-8.004 8.003-8.002zm3.567-3.566l8.003-8.004 8.003 8.002-8.003 8.004-8.003-8.002zm19.572 3.565l8.003 8.003-8.003 8.004-8.003-8.004 8.003-8.003zm3.567-3.567l8.003-8.002 8.003 8.002-8.003 8.004-8.003-8.004zM196 370.568l8.003 8.003-8.003 8.004-8.003-8.004 8.003-8.003zm3.567-3.567l8.003-8.002 8.003 8.004-8.003 8.002-8.003-8.004zm19.572 3.568l8.003 8.002-8.003 8.004-8.003-8.004 8.003-8.002zm3.567-3.566l8.003-8.004 8.003 8.002-8.003 8.004-8.003-8.002zm16.006-23.141l-8.003 8.003-8.003-8.003 8.003-8.003 8.003 8.003zm-11.569-11.569l-8.003 8.003-8.003-8.003 8.003-8.004 8.003 8.004zm-11.57-11.57l-8.003 8.003-8.003-8.002 8.003-8.004 8.003 8.003zm-11.57-11.57L196 317.157l-8.003-8.004 8.003-8.004 8.003 8.004zm-19.573-19.572l8.003 8.002-8.003 8.003-8.003-8.003 8.003-8.002zm-11.569 11.568l8.003 8.004-8.003 8.004-8.003-8.004 8.003-8.004zM161.29 312.72l8.003 8.004-8.003 8.002-8.003-8.003 8.003-8.003zm-11.569 11.569l8.003 8.004-8.003 8.003-8.003-8.003 8.003-8.004zm-11.57 11.57l8.002 8.003-8.002 8.003-8.003-8.003 8.003-8.003zm-19.572 19.573l8.003-8.003 8.003 8.003-8.003 8.003-8.003-8.003zm0 23.139l8.003-8.003 8.004 8.003-8.004 8.004-8.003-8.004zm11.569 11.571l8.003-8.003 8.002 8.003-8.003 8.003-8.002-8.003zm19.573 19.572l-8.003-8.003 8.003-8.003 8.003 8.003-8.003 8.003zm3.567-19.572l8.003-8.003 8.003 8.003-8.003 8.003-8.003-8.003zm19.573 19.572l-8.003-8.003 8.003-8.003 8.003 8.003-8.003 8.003zm3.566-19.572l8.003-8.003 8.003 8.003-8.003 8.003-8.003-8.003zm19.572 19.572l-8.003-8.003 8.003-8.003 8.003 8.003-8.003 8.003zm3.567-19.572l8.003-8.003 8.003 8.003-8.003 8.003-8.003-8.003zm19.573 19.572l-8.004-8.003 8.004-8.003 8.003 8.003-8.003 8.003zm11.57-11.569l-8.003-8.003 8.002-8.003 8.003 8.003-8.002 8.003zm11.57-11.57l-8.003-8.004 8.003-8.003 8.003 8.003-8.003 8.004z" fill="#02af8e"/></svg>